<svg xmlns="http://www.w3.org/2000/svg" viewBox="0 0 64 64" fill="none"><defs><linearGradient id="g" gradientUnits="userSpaceOnUse" x1="16.15" y1="8.6" x2="43.95" y2="59.21"><stop offset="0.0" stop-color="#01ECFD"/><stop offset="0.167" stop-color="#0ABAF8"/><stop offset="0.333" stop-color="#2182F4"/><stop offset="0.5" stop-color="#4242F2"/><stop offset="0.667" stop-color="#7622F3"/><stop offset="0.833" stop-color="#B01AF7"/><stop offset="1.0" stop-color="#C915F9"/></linearGradient></defs><path d="M28.64 1.41 4.39 14.47 2.74 16.63 2.64 20.16 4.29 22.64 29.86 36.36 39.07 30.83 16.04 17.57 29.21 10.81 43.6 18.85 50.05 13.2Z" fill="url(#g)" stroke="url(#g)" stroke-width="0.9" stroke-linejoin="round"/><path d="M56.1 26.21 55.59 26.05 29.66 41.53 3.18 28.07 2.75 47.73 3.84 49.31 10.32 52.92 11.83 51.68 12.31 41.3 29.75 50.6 46.78 41.17 47.22 59.5 54.44 54.93 56.1 52.54Z" fill="url(#g)" stroke="url(#g)" stroke-width="0.9" stroke-linejoin="round"/><path d="M59.01 11.66L42.98 25.56" stroke="url(#g)" stroke-width="1.66" stroke-linecap="round"/><circle cx="59.01" cy="11.66" r="2.98" fill="url(#g)"/><circle cx="42.98" cy="25.56" r="2.13" fill="url(#g)"/><path d="M4.99 60.19L18.44 50.44" stroke="url(#g)" stroke-width="1.79" stroke-linecap="round"/><circle cx="4.99" cy="60.19" r="2.96" fill="url(#g)"/><circle cx="18.44" cy="50.44" r="2.02" fill="url(#g)"/></svg>